<svg xmlns="http://www.w3.org/2000/svg" width="45.255" height="45.255" viewBox="0 0 45.255 45.255">
  <g id="X-High" transform="translate(22.628) rotate(45)">
    <rect id="_32x32px_Null_Bounding_Box" data-name="32x32px Null Bounding Box" width="32" height="32" transform="translate(0 0)" fill="none"/>
    <path id="Path_26" data-name="Path 26" d="M63.414,12,74.707.707a1,1,0,0,0,0-1.414,1,1,0,0,0-1.414,0L62,10.586,50.707-.707a1,1,0,0,0-1.414,0,1,1,0,0,0,0,1.414L60.586,12,49.293,23.293a1,1,0,1,0,1.414,1.414L62,13.414,73.293,24.707a1,1,0,1,0,1.414-1.414Z" transform="translate(-46 4)" fill="#424242"/>
    <g id="Group_10885" data-name="Group 10885" transform="translate(0 0)">
      <path id="Path_26-2" data-name="Path 26" d="M63.414,12,74.707.707a1,1,0,0,0,0-1.414,1,1,0,0,0-1.414,0L62,10.586,50.707-.707a1,1,0,0,0-1.414,0,1,1,0,0,0,0,1.414L60.586,12,49.293,23.293a1,1,0,1,0,1.414,1.414L62,13.414,73.293,24.707a1,1,0,1,0,1.414-1.414Z" transform="translate(-46 4)" fill="#2e1a47"/>
    </g>
  </g>
</svg>
