<?xml version="1.0" encoding="utf-8"?>
<!-- Generator: Adobe Illustrator 25.4.1, SVG Export Plug-In . SVG Version: 6.00 Build 0)  -->
<svg version="1.1" id="Layer_1" xmlns="http://www.w3.org/2000/svg" xmlns:xlink="http://www.w3.org/1999/xlink" x="0px" y="0px"
	 viewBox="0 0 65 65" style="enable-background:new 0 0 65 65;" xml:space="preserve">
<style type="text/css">
	.st0{fill:#FFFFFF;stroke:#FFFFFF;stroke-width:3.4383;}
</style>
<g id="Contact" transform="translate(0.55 0.5)">
	<path id="icon-phone" class="st0" d="M56.8,45.2l-8-5.6c-2.8-2-6.6-1.3-8.6,1.5c0,0,0,0,0,0l-1.9,2.7c-3.5-2.5-6.8-5.2-9.9-8.3
		c-3.1-3-5.9-6.3-8.3-9.9l2.7-1.9c2.8-1.9,3.5-5.8,1.5-8.6c0,0,0,0,0,0l-5.6-8c-1.1-1.6-3-2.6-5-2.7c-0.7,0-1.4,0.1-2,0.3
		c-0.7,0.3-1.4,0.6-2.1,1L8.6,6.7C8.3,6.9,8,7.1,7.8,7.3C6.4,8.7,5.4,10.5,5,12.4C2.7,21,8.4,34.1,19.1,44.8
		c9,9,19.9,14.7,28.4,14.7l0,0c1.4,0,2.7-0.2,4.1-0.5c1.9-0.5,3.7-1.5,5.1-2.8c0.3-0.3,0.5-0.5,0.7-0.8l0.8-1.1c0.4-0.6,0.7-1.3,1-2
		C60,49.6,59.1,46.7,56.8,45.2z M56.8,51.4c-0.2,0.5-0.4,1-0.7,1.5l-0.7,1c-0.2,0.2-0.3,0.4-0.5,0.6c-1.1,1.1-2.5,1.8-4,2.2
		c-1.1,0.3-2.3,0.4-3.4,0.4c-7.8,0-18-5.3-26.6-13.9c-10-10-15.6-22.4-13.5-30c0.4-1.5,1.1-2.9,2.2-4C9.7,8.9,9.8,8.8,10,8.6l1-0.7
		c0.5-0.3,1-0.6,1.6-0.8C13,7,13.3,7,13.7,7c1.2,0,2.3,0.6,3,1.6l5.6,8c1.2,1.7,0.8,4-0.9,5.1c0,0,0,0,0,0l-3.6,2.5
		c-0.5,0.4-0.7,1.1-0.3,1.7c2.7,4.1,5.8,7.9,9.3,11.3c3.4,3.5,7.2,6.6,11.3,9.3c0.6,0.3,1.3,0.2,1.7-0.3l2.5-3.6
		c1.2-1.6,3.5-2,5.2-0.9l8,5.6C56.7,48.1,57.3,49.8,56.8,51.4L56.8,51.4z"/>
</g>
</svg>
