<svg xmlns="http://www.w3.org/2000/svg" width="25" height="24" viewBox="0 0 25 24">
  <g id="Hamburger-Med" transform="translate(0.5)">
    <rect id="_24x24px_Null_Bounding_Box" data-name="24x24px Null Bounding Box" width="24" height="24" fill="none"/>
    <path id="Union_3" data-name="Union 3" d="M774-485a1,1,0,0,1-1-1,1,1,0,0,1,1-1h22a1,1,0,0,1,1,1,1,1,0,0,1-1,1Zm0-9a1,1,0,0,1-1-1,1,1,0,0,1,1-1h22a1,1,0,0,1,1,1,1,1,0,0,1-1,1Zm0-9a1,1,0,0,1-1-1,1,1,0,0,1,1-1h22a1,1,0,0,1,1,1,1,1,0,0,1-1,1Z" transform="translate(-773 507)" fill="#2e1a47" stroke="rgba(0,0,0,0)" stroke-miterlimit="10" stroke-width="1"/>
  </g>
</svg>
