<?xml version="1.0" encoding="utf-8"?>
<!-- Generator: Adobe Illustrator 25.4.1, SVG Export Plug-In . SVG Version: 6.00 Build 0)  -->
<svg version="1.1" id="Layer_1" xmlns="http://www.w3.org/2000/svg" xmlns:xlink="http://www.w3.org/1999/xlink" x="0px" y="0px"
	 viewBox="0 0 65 65" style="enable-background:new 0 0 65 65;" xml:space="preserve">
<style type="text/css">
	.st0{fill:#FFFFFF;}
</style>
<g id="Atm" transform="translate(-1033 -12)">
	<g id="Location-Low" transform="translate(1033 12)">
		<path id="Union_88" class="st0" d="M30.1,59c-0.7-0.7-18.2-18.4-18.2-33.4C11.9,14.2,21.1,5,32.5,5s20.6,9.2,20.6,20.6
			c0,15-17.5,32.6-18.2,33.4C33.6,60.3,31.4,60.3,30.1,59z M18.7,25.6c0,8.6,8.5,19.9,13.8,25.9c5.3-6,13.8-17.3,13.8-25.9
			c0-7.6-6.2-13.8-13.8-13.8S18.7,18,18.7,25.6z M25.6,25.6c0-3.8,3.1-6.9,6.9-6.9s6.9,3.1,6.9,6.9s-3.1,6.9-6.9,6.9
			S25.6,29.4,25.6,25.6z"/>
	</g>
</g>
</svg>
