<?xml version="1.0" encoding="utf-8"?>
<!-- Generator: Adobe Illustrator 25.4.1, SVG Export Plug-In . SVG Version: 6.00 Build 0)  -->
<svg version="1.1" id="Layer_1" xmlns="http://www.w3.org/2000/svg" xmlns:xlink="http://www.w3.org/1999/xlink" x="0px" y="0px"
	 viewBox="0 0 65 65" style="enable-background:new 0 0 65 65;" xml:space="preserve">
<style type="text/css">
	.st0{fill:#FFFFFF;}
</style>
<path id="Union_19" class="st0" d="M32.5,46.2c3.8,0,6.9,3.1,6.9,6.9S36.3,60,32.5,60s-6.9-3.1-6.9-6.9S28.7,46.2,32.5,46.2z
	 M32.5,25.6c3.8,0,6.9,3.1,6.9,6.9s-3.1,6.9-6.9,6.9s-6.9-3.1-6.9-6.9S28.7,25.6,32.5,25.6z M32.5,5c3.8,0,6.9,3.1,6.9,6.9
	s-3.1,6.9-6.9,6.9s-6.9-3.1-6.9-6.9S28.7,5,32.5,5z"/>
</svg>
