<?xml version="1.0" encoding="utf-8"?>
<!-- Generator: Adobe Illustrator 25.4.1, SVG Export Plug-In . SVG Version: 6.00 Build 0)  -->
<svg version="1.1" id="Layer_1" xmlns="http://www.w3.org/2000/svg" xmlns:xlink="http://www.w3.org/1999/xlink" x="0px" y="0px"
	 viewBox="0 0 65 65" style="enable-background:new 0 0 65 65;" xml:space="preserve">
<style type="text/css">
	.st0{fill:none;}
	.st1{fill:#2E1A47;}
</style>
<rect id="_24x24px_Null_Bounding_Box" x="20.7" y="20.7" class="st0" width="24" height="24"/>
<path id="Path_10" class="st1" d="M37.9,59.5c0.2,0,0.3-0.1,0.5-0.1c0.5-0.1,1-0.2,1.5-0.4C51.8,55.6,60,44.8,60,32.5
	C60,17.3,47.7,5,32.5,5C17.3,5,5,17.3,5,32.5C5,44.8,13.2,55.6,25.1,59c0.5,0.1,1,0.3,1.5,0.4c0.2,0,0.3,0.1,0.5,0.1
	c0.8,0.2,1.5,0.3,2.3,0.4c0.2,0,0.4,0,0.6,0.1c0.8,0.1,1.7,0.1,2.5,0.1c0.9,0,1.7-0.1,2.5-0.1c0.2,0,0.4,0,0.6-0.1
	C36.4,59.7,37.2,59.6,37.9,59.5z M37.8,54.8c-0.4,0.1-0.7,0.2-1.1,0.2c-0.5,0.1-1.1,0.2-1.7,0.3c-0.2,0-0.3,0-0.5,0
	c-0.7,0.1-1.4,0.1-2.1,0.1c-0.7,0-1.4,0-2.1-0.1c-0.2,0-0.3,0-0.5,0c-0.6-0.1-1.1-0.2-1.7-0.3c-0.4-0.1-0.7-0.1-1.1-0.2l0,0
	c-4.9-1.2-8.5-4.1-8.5-7.4c0-4.4,6.3-8,13.8-8s13.8,3.7,13.8,8C46.2,50.7,42.7,53.5,37.8,54.8L37.8,54.8z M25.6,27.9
	c0-3.8,3.1-6.9,6.9-6.9s6.9,3.1,6.9,6.9s-3.1,6.9-6.9,6.9S25.6,31.7,25.6,27.9z M9.6,32.5c0-12.7,10.3-22.9,22.9-22.9
	c12.7,0,22.9,10.3,22.9,22.9c0,5-1.6,9.8-4.7,13.8c-0.6-4.6-4.5-8.4-10.2-10.2c2.2-2.1,3.4-5.1,3.4-8.1c0-6.3-5.1-11.5-11.5-11.5
	c-6.3,0-11.5,5.1-11.5,11.5c0,3.1,1.2,6,3.4,8.1c-5.7,1.9-9.6,5.7-10.2,10.2C11.2,42.3,9.6,37.5,9.6,32.5z"/>
</svg>
