<?xml version="1.0" encoding="UTF-8"?>
<svg width="200px" height="80px" viewBox="0 0 200 80" version="1.1" xmlns="http://www.w3.org/2000/svg" xmlns:xlink="http://www.w3.org/1999/xlink">
    <!-- Generator: Sketch 61.2 (89653) - https://sketch.com -->
    <title>truist-logo</title>
    <desc>Created with Sketch.</desc>
    <g id="truist-logo" stroke="none" stroke-width="1" fill="none" fill-rule="evenodd">
        <g id="global/truist-logo--purple" transform="translate(21.000000, 21.000000)" fill="#2E1A47">
            <path d="M154.539584,34.0020329 L154.539584,20.3646849 L145.114992,20.3646849 L145.114992,27.1227562 L141.509129,27.1227562 L141.509129,10.0007507 L145.114992,10.0007507 L145.114992,16.7588219 L154.539584,16.7588219 L154.539584,3.12147397 L123.659458,3.12147397 L123.659458,16.7588219 L133.084482,16.7588219 L133.084482,10.0007507 L136.690345,10.0007507 L136.690345,27.1227562 L133.084482,27.1227562 L133.084482,20.3646849 L123.659458,20.3646849 L123.659458,34.0020329 L154.539584,34.0020329 Z M120.537984,33.7293205 L120.537984,3.3941863 C120.537984,1.27309041 121.811074,-3.07577403e-15 123.93217,-3.07577403e-15 L154.266871,-3.07577403e-15 C156.3884,-3.07577403e-15 157.661058,1.27309041 157.661058,3.3941863 L157.661058,33.7293205 C157.661058,35.8504164 156.3884,37.1235068 154.266871,37.1235068 L123.93217,37.1235068 C121.811074,37.1235068 120.537984,35.8504164 120.537984,33.7293205 Z M100.752055,29.1698301 L100.752055,11.3504603 L94.0242849,11.3504603 L94.0242849,7.95627397 L111.176592,7.95627397 L111.176592,11.3504603 L104.449255,11.3504603 L104.449255,29.1698301 L100.752055,29.1698301 Z M83.1170904,20.0478192 C80.2683288,19.0781753 77.1771562,17.8661205 77.1771562,13.8962082 C77.1771562,10.0172 80.0562192,7.5021863 84.4810849,7.5021863 C86.4809753,7.5021863 88.1475507,7.95627397 89.6327507,8.62333699 L89.6327507,12.5023452 C87.9657425,11.4716658 86.2991671,10.8656384 84.4810849,10.8656384 C82.2989534,10.8656384 80.9349589,11.8958849 80.9349589,13.5325918 C80.9349589,15.4723123 82.7231726,16.0480384 85.5416329,17.0176822 C88.3903945,17.987326 91.4811342,19.1993808 91.4811342,23.1692932 C91.4811342,27.1089041 88.5414685,29.6243507 84.0261315,29.6243507 C81.5717205,29.6243507 79.5713973,28.9880219 77.9048219,28.1391507 L77.9048219,24.1999726 C79.8445425,25.4120274 81.7838301,26.2604658 84.0261315,26.2604658 C86.2991671,26.2604658 87.7233315,25.1696164 87.7233315,23.5329096 C87.7233315,21.5936219 85.9355507,21.0178959 83.1170904,20.0478192 Z M67.2993425,29.1698301 L70.9965425,29.1698301 L70.9965425,7.95627397 L67.2993425,7.95627397 L67.2993425,29.1698301 Z M43.270789,20.9568603 L43.270789,7.95627397 L46.967989,7.95627397 L46.967989,20.8966904 C46.967989,24.1999726 48.7865041,26.2301644 51.7863397,26.2301644 C54.7866082,26.2301644 56.6046904,24.1999726 56.6046904,20.8966904 L56.6046904,7.95627397 L60.3018904,7.95627397 L60.3018904,20.9568603 C60.3018904,26.1089589 56.8774027,29.6243507 51.7863397,29.6243507 C46.6952767,29.6243507 43.270789,26.1089589 43.270789,20.9568603 Z M30.1511616,18.3206411 C32.2419562,18.3206411 33.7574575,16.8661753 33.7574575,14.8052493 C33.7574575,12.7750575 32.2419562,11.3201589 30.1511616,11.3201589 L25.574789,11.3201589 L25.574789,18.3206411 L30.1511616,18.3206411 Z M30.8177918,24.8969041 C29.7875452,22.7753753 29.2416877,21.6239233 26.8478795,21.6239233 L25.574789,21.6239233 L25.574789,29.1698301 L21.8780219,29.1698301 L21.8780219,7.95627397 L30.1810301,7.95627397 C34.5149918,7.95627397 37.5455616,10.7444329 37.5455616,14.7143452 C37.5455616,17.987326 35.6058411,20.199326 32.6060055,20.9568603 C33.9691342,22.3511562 34.4236548,24.1696712 35.3326959,25.0787123 C35.8478192,25.5938356 36.3936767,25.8968493 37.2425479,25.8968493 C37.5754301,25.8968493 37.8481425,25.8665479 38.0909863,25.8059452 L38.0909863,29.1698301 C37.6364658,29.2607342 37.2118137,29.321337 36.7572932,29.321337 C33.0903945,29.321337 31.9692438,27.2907123 30.8177918,24.8969041 Z M6.72776986,29.1698301 L6.72776986,11.3504603 L2.46061923e-14,11.3504603 L2.46061923e-14,7.95627397 L17.1523068,7.95627397 L17.1523068,11.3504603 L10.4249699,11.3504603 L10.4249699,29.1698301 L6.72776986,29.1698301 L6.72776986,29.1698301 Z" id="tru_lg_hrz_rgb_pos"></path>
        </g>
    </g>
</svg>