<svg id="twitter-solid.svg" xmlns="http://www.w3.org/2000/svg" width="24" height="24" viewBox="0 0 24 24">
  <path id="Path_11" data-name="Path 11" d="M10.547,27.936A12.125,12.125,0,0,1,3,25.214a8.155,8.155,0,0,0,1.173.083A8.786,8.786,0,0,0,10.288,22.7c-2.155-.05-3.972-1.8-4.6-4.208a4.022,4.022,0,0,0,.926.109,4.067,4.067,0,0,0,1.3-.213c-2.251-.555-3.95-3.006-3.95-5.938v-.077a4.234,4.234,0,0,0,2.229.759A6.53,6.53,0,0,1,4,8.091,7.1,7.1,0,0,1,4.67,5.046a13.33,13.33,0,0,0,10.149,6.331A7.425,7.425,0,0,1,14.692,10c0-3.345,2.205-6.059,4.924-6.059a4.55,4.55,0,0,1,3.595,1.913,8.859,8.859,0,0,0,3.127-1.47A6.026,6.026,0,0,1,24.173,7.73,8.472,8.472,0,0,0,27,6.777a11.578,11.578,0,0,1-2.457,3.136c.01.26.014.52.014.782,0,8.008-4.953,17.241-14.01,17.241" transform="translate(-3 -3.936)" fill="#afabc9"/>
</svg>
